<svg width="83" height="105" viewBox="0 0 83 105" fill="none" xmlns="http://www.w3.org/2000/svg">
<path d="M37.5642 0H55V78.6823C46.0691 80.3456 39.4944 81 32.3808 81C11.0853 80.9781 0 71.6109 0 53.6206C0 36.287 11.7585 25.0375 29.9797 25.0375C32.8072 25.0375 34.9612 25.2566 37.5642 25.9129V0ZM38.1752 40.0924C36.1331 39.4357 34.4504 39.2169 32.296 39.2169C23.4773 39.2169 18.3835 44.5132 18.3835 53.795C18.3835 62.8318 23.2531 67.8217 32.1841 67.8217C34.1136 67.8217 35.6845 67.7147 38.1752 67.3864V40.0924V40.0924Z" fill="#2BA977"/>
<path d="M83 27.19V66.6433C83 80.2302 81.9825 86.7641 78.9961 92.3973C76.2087 97.813 72.5367 101.228 64.9493 105L49 97.4823C56.5875 93.9552 60.2595 90.8387 62.6045 86.0825C65.0596 81.2189 65.8339 75.5857 65.8339 60.769V27.1903H83V27.19ZM64.1018 0H81.2898V17.4689H64.1018V0Z" fill="#2BA977"/>
</svg>
