<svg width="89" height="90" viewBox="0 0 89 90" fill="none" xmlns="http://www.w3.org/2000/svg">
<path d="M44.0451 0.000776185C40.3687 0.0174557 36.8583 0.328013 33.7698 0.869699C24.6702 2.4622 23.0181 5.79413 23.0181 11.9401V20.0567H44.5215V22.762H14.9475C8.69824 22.762 3.22535 26.4823 1.51386 33.5592C-0.460675 41.671 -0.548094 46.7328 1.51386 55.2028C3.04249 61.5077 6.69322 66 12.9425 66H20.3362V56.2703C20.3362 49.2411 26.4771 43.0411 33.7698 43.0411H55.2483C61.2273 43.0411 66 38.1659 66 32.2192V11.9393C66 6.16822 61.0837 1.83235 55.2483 0.868905C51.5535 0.2605 47.7215 -0.0166976 44.0451 0.000776185V0.000776185ZM32.416 6.52802C34.6375 6.52802 36.4509 8.35403 36.4509 10.5986C36.4509 12.8353 34.6367 14.6446 32.416 14.6446C30.1872 14.6446 28.3811 12.8361 28.3811 10.5986C28.3811 8.35403 30.1872 6.52802 32.416 6.52802Z" fill="url(#paint0_linear)"/>
<path d="M68.5714 23V32.5269C68.5714 39.9133 62.3076 46.1299 55.165 46.1299H33.7299C27.8583 46.1299 23 51.1534 23 57.0323V77.4616C23 83.2764 28.0568 86.6964 33.7299 88.3639C40.5228 90.3612 47.0371 90.7221 55.165 88.3639C60.5675 86.8004 65.8949 83.6525 65.8949 77.4616V69.2854H44.4598V66.56H76.6248C82.8622 66.56 85.1857 62.2102 87.3547 55.6824C89.5958 48.9625 89.5005 42.4987 87.3547 33.8776C85.8132 27.6706 82.8694 23 76.6248 23H68.5714V23ZM56.5152 74.7362C58.7395 74.7362 60.5419 76.5582 60.5419 78.8123C60.5419 81.0735 58.7395 82.9132 56.5152 82.9132C54.2981 82.9132 52.4885 81.0735 52.4885 78.8123C52.4885 76.559 54.2989 74.7362 56.5152 74.7362Z" fill="url(#paint1_linear)"/>
<defs>
<linearGradient id="paint0_linear" x1="-2.12083" y1="2.53525" x2="47.0606" y2="44.8478" gradientUnits="userSpaceOnUse">
<stop stop-color="#5A9FD4"/>
<stop offset="1" stop-color="#306998"/>
</linearGradient>
<linearGradient id="paint1_linear" x1="65.967" y1="71.0544" x2="48.2184" y2="46.1794" gradientUnits="userSpaceOnUse">
<stop stop-color="#FFD43B"/>
<stop offset="1" stop-color="#FFE873"/>
</linearGradient>
</defs>
</svg>
